<svg viewBox="0 0 358 358" fill="none" xmlns="http://www.w3.org/2000/svg">
<path fill-rule="evenodd" clip-rule="evenodd" d="M179 90C152.342 90 137.772 82.5 133.7 78C131.155 87 135.736 94 144.389 96.5C153.042 99 173.401 106.5 173.401 114.5C173.401 122.5 162.712 125 160.676 125C158.641 125 145.407 125 145.916 112C146.323 101.6 141.335 98 138.79 97.5C126.065 117 142.862 134 159.658 134C173.096 134 178.152 140.667 179 144C179.848 140.667 184.904 134 198.342 134C215.138 134 231.935 117 219.21 97.5C216.665 98 211.677 101.6 212.084 112C212.593 125 199.359 125 197.324 125C195.288 125 184.599 122.5 184.599 114.5C184.599 106.5 204.958 99 213.611 96.5C222.264 94 226.845 87 224.3 78C220.228 82.5 205.5 90 179 90ZM182.054 129.5C182.054 131.9 180.018 133.833 179 134.5C177.982 133.833 175.946 131.9 175.946 129.5C175.946 127.1 177.982 124.5 179 123.5C180.018 124.5 182.054 127.1 182.054 129.5ZM179 222.982C134.113 183.782 131.337 138.833 135.212 121C138.686 150.674 155.525 174.036 168.915 187.293C174.86 193.179 179 200.941 179 209.307V222.982ZM158.97 105C158.128 107.5 158.161 112 165.036 110C166.216 113.333 166.553 120.2 158.465 121C153.562 121.485 151.383 118.687 150.578 115.48C149.603 111.597 150.691 106.8 154.339 105.15C155.604 104.578 157.15 104.4 158.97 105ZM180.5 222.982C224.9 183.782 226.833 138.833 223 121C219.568 150.637 203.444 173.977 190.425 187.243C184.598 193.18 180.5 200.903 180.5 209.222V222.982ZM200.5 105C201.333 107.5 201.3 112 194.5 110C193.333 113.333 193 120.2 201 121C205.877 121.488 208.028 118.655 208.814 115.426C209.751 111.572 208.705 106.826 205.105 105.162C203.85 104.581 202.313 104.396 200.5 105ZM75.3485 213.736C89.1818 213.569 125.048 217.836 157.848 236.236C147.771 228.114 121.677 211.44 91.6928 203.855C85.3063 202.239 76.7954 202.42 75.1792 208.806C74.8153 210.243 74.8048 211.887 75.3485 213.736ZM56.3488 235.736C82.6821 233.069 140.049 230.236 158.849 240.236C145.349 232.569 107.349 218.036 63.3488 221.236C60.3488 221.569 54.7488 224.936 56.3488 235.736ZM179 263.404V263.404C186 263.404 188.5 258.664 190.5 252.164C192.991 244.068 201.856 240.228 210.157 238.547C245.47 231.392 309.035 239.682 317 243.664C324.2 247.264 324.333 257.831 323.5 262.664C285.333 253.831 208 240.964 204 260.164C200 279.364 186.5 280.736 179 280.736C171.644 280.736 157.978 279.943 153.974 260.928C149.97 241.913 72.5556 254.656 34.3491 263.404C33.5149 258.618 33.6484 248.153 40.8559 244.587C48.8342 240.641 112.549 232.423 147.883 239.534C156.14 241.196 164.987 244.963 167.488 253.005C169.49 259.443 171.644 263.404 179 263.404ZM201 240.236C219.8 230.236 277.166 233.069 303.5 235.736C305.1 224.936 299.5 221.569 296.5 221.236C252.5 218.036 214.5 232.569 201 240.236ZM202 236.236C234.8 217.836 270.667 213.569 284.5 213.736C285.044 211.887 285.033 210.244 284.669 208.806C283.053 202.42 274.542 202.239 268.156 203.855C238.172 211.44 212.078 228.114 202 236.236Z" />
</svg>
