<svg width="28" height="29" viewBox="0 0 28 29" fill="none" xmlns="http://www.w3.org/2000/svg">
<path d="M22.224 6.2271C21.1544 5.14668 19.8803 4.29005 18.4762 3.70716C17.0721 3.12427 15.5659 2.8268 14.0456 2.8321C7.67562 2.8321 2.48396 8.02377 2.48396 14.3938C2.48396 16.4354 3.02063 18.4188 4.02396 20.1688L2.39062 26.1654L8.51563 24.5554C10.2073 25.4771 12.109 25.9671 14.0456 25.9671C20.4156 25.9671 25.6073 20.7754 25.6073 14.4054C25.6073 11.3138 24.4056 8.40877 22.224 6.2271ZM14.0456 24.0071C12.319 24.0071 10.6273 23.5404 9.14563 22.6654L8.79563 22.4554L5.15563 23.4121L6.12396 19.8654L5.89063 19.5038C4.93133 17.9719 4.42196 16.2012 4.42063 14.3938C4.42063 9.0971 8.73729 4.78043 14.034 4.78043C16.6006 4.78043 19.0156 5.78377 20.824 7.60377C21.7194 8.49506 22.4289 9.55521 22.9116 10.7228C23.3942 11.8903 23.6403 13.1421 23.6356 14.4054C23.659 19.7021 19.3423 24.0071 14.0456 24.0071ZM19.319 16.8204C19.0273 16.6804 17.604 15.9804 17.3473 15.8754C17.079 15.7821 16.8923 15.7354 16.694 16.0154C16.4956 16.3071 15.9473 16.9604 15.784 17.1471C15.6206 17.3454 15.4456 17.3688 15.154 17.2171C14.8623 17.0771 13.929 16.7621 12.8323 15.7821C11.969 15.0121 11.3973 14.0671 11.2223 13.7754C11.059 13.4838 11.199 13.3321 11.3506 13.1804C11.479 13.0521 11.6423 12.8421 11.7823 12.6788C11.9223 12.5154 11.9806 12.3871 12.074 12.2004C12.1673 12.0021 12.1206 11.8388 12.0506 11.6988C11.9806 11.5588 11.3973 10.1354 11.164 9.5521C10.9306 8.9921 10.6856 9.0621 10.5106 9.05043H9.95062C9.75229 9.05043 9.44896 9.12043 9.18062 9.4121C8.92396 9.70377 8.17729 10.4038 8.17729 11.8271C8.17729 13.2504 9.21563 14.6271 9.35563 14.8138C9.49563 15.0121 11.3973 17.9288 14.2906 19.1771C14.979 19.4804 15.5156 19.6554 15.9356 19.7838C16.624 20.0054 17.254 19.9704 17.7556 19.9004C18.3156 19.8188 19.4706 19.2004 19.704 18.5238C19.949 17.8471 19.949 17.2754 19.8673 17.1471C19.7856 17.0188 19.6106 16.9604 19.319 16.8204Z" fill="black"/>
</svg>
