<svg viewBox="0 0 20 20" fill="none" xmlns="http://www.w3.org/2000/svg">
    <path fill-rule="evenodd" clip-rule="evenodd" d="M6.00608 4.82611C5.68065 4.50067 5.15301 4.50067 4.82757 4.82611C4.50214 5.15155 4.50214 5.67918 4.82757 6.00462L8.82165 9.9987L4.82757 13.9928C4.50214 14.3182 4.50214 14.8458 4.82757 15.1713C5.15301 15.4967 5.68065 15.4967 6.00608 15.1713L10.0002 11.1772L13.9942 15.1713C14.3197 15.4967 14.8473 15.4967 15.1728 15.1713C15.4982 14.8458 15.4982 14.3182 15.1728 13.9928L11.1787 9.9987L15.1728 6.00462C15.4982 5.67918 15.4982 5.15155 15.1728 4.82611C14.8473 4.50067 14.3197 4.50067 13.9942 4.82611L10.0002 8.82019L6.00608 4.82611Z" />
</svg>
