<svg width="28" height="28" viewBox="0 0 28 28" fill="none" xmlns="http://www.w3.org/2000/svg">
    <path d="M24.7767 6.16991L14.2767 2.66991C14.0971 2.61003 13.9029 2.61003 13.7233 2.66991L3.22328 6.16991C3.04905 6.22799 2.89752 6.33942 2.79014 6.48841C2.68276 6.63741 2.62499 6.81641 2.625 7.00006V15.7501C2.625 15.9821 2.71719 16.2047 2.88128 16.3688C3.04538 16.5329 3.26794 16.6251 3.5 16.6251C3.73206 16.6251 3.95462 16.5329 4.11872 16.3688C4.28281 16.2047 4.375 15.9821 4.375 15.7501V8.21413L8.04891 9.43803C7.0728 11.015 6.7624 12.9149 7.18587 14.7205C7.60933 16.5262 8.73205 18.0899 10.3075 19.0685C8.33875 19.8407 6.63688 21.2374 5.39219 23.1471C5.32745 23.2433 5.28249 23.3514 5.25991 23.4652C5.23733 23.5789 5.23758 23.696 5.26065 23.8096C5.28373 23.9233 5.32916 24.0312 5.3943 24.1271C5.45945 24.2231 5.54302 24.3051 5.64014 24.3684C5.73727 24.4318 5.84602 24.4752 5.96007 24.4961C6.07412 24.5171 6.1912 24.5152 6.3045 24.4905C6.4178 24.4658 6.52506 24.4188 6.62005 24.3523C6.71504 24.2858 6.79586 24.2011 6.85781 24.103C8.50609 21.5743 11.1092 20.1251 14 20.1251C16.8908 20.1251 19.4939 21.5743 21.1422 24.103C21.2705 24.2938 21.4688 24.4263 21.6941 24.4721C21.9194 24.5178 22.1536 24.4731 22.3462 24.3475C22.5387 24.2219 22.6741 24.0255 22.7231 23.8009C22.772 23.5763 22.7306 23.3414 22.6078 23.1471C21.3631 21.2374 19.6547 19.8407 17.6925 19.0685C19.2664 18.09 20.3881 16.5272 20.8115 14.7229C21.2349 12.9186 20.9255 11.02 19.9511 9.4435L24.7767 7.83569C24.951 7.77764 25.1026 7.66623 25.21 7.51723C25.3174 7.36823 25.3752 7.18921 25.3752 7.00553C25.3752 6.82185 25.3174 6.64283 25.21 6.49384C25.1026 6.34484 24.951 6.23342 24.7767 6.17538V6.16991ZM19.25 13.1251C19.2502 13.9551 19.0537 14.7733 18.6765 15.5126C18.2992 16.2519 17.7521 16.8913 17.0799 17.3782C16.4078 17.8651 15.6297 18.1857 14.8097 18.3137C13.9896 18.4417 13.1509 18.3735 12.3623 18.1146C11.5737 17.8557 10.8577 17.4135 10.2731 16.8243C9.68856 16.2351 9.25199 15.5157 8.99928 14.7251C8.74656 13.9345 8.68489 13.0952 8.81932 12.2762C8.95376 11.4572 9.28047 10.6817 9.77266 10.0133L13.7233 11.3258C13.9029 11.3857 14.0971 11.3857 14.2767 11.3258L18.2273 10.0133C18.8921 10.9146 19.2505 12.0052 19.25 13.1251ZM14 9.57803L6.26719 7.00006L14 4.4221L21.7328 7.00006L14 9.57803Z" />
</svg>
