<svg width="28" height="28" viewBox="0 0 28 28" fill="none" xmlns="http://www.w3.org/2000/svg">
    <path d="M23.625 4.59375H4.375C3.96889 4.59375 3.57941 4.75508 3.29224 5.04224C3.00508 5.32941 2.84375 5.71889 2.84375 6.125V21.875C2.84375 22.2811 3.00508 22.6706 3.29224 22.9578C3.57941 23.2449 3.96889 23.4062 4.375 23.4062H5.83953C5.96371 23.4062 6.08534 23.3709 6.19028 23.3045C6.29521 23.2381 6.37915 23.1433 6.43234 23.0311C6.8755 22.0952 7.57527 21.3043 8.45025 20.7505C9.32524 20.1967 10.3395 19.9027 11.375 19.9027C12.4105 19.9027 13.4248 20.1967 14.2997 20.7505C15.1747 21.3043 15.8745 22.0952 16.3177 23.0311C16.3708 23.1433 16.4548 23.2381 16.5597 23.3045C16.6647 23.3709 16.7863 23.4062 16.9105 23.4062H23.625C24.0311 23.4062 24.4206 23.2449 24.7078 22.9578C24.9949 22.6706 25.1562 22.2811 25.1562 21.875V6.125C25.1562 5.71889 24.9949 5.32941 24.7078 5.04224C24.4206 4.75508 24.0311 4.59375 23.625 4.59375ZM8.53125 15.75C8.53125 15.1876 8.69803 14.6377 9.01051 14.1701C9.32298 13.7024 9.76712 13.338 10.2867 13.1227C10.8064 12.9075 11.3782 12.8512 11.9298 12.9609C12.4814 13.0706 12.9881 13.3415 13.3858 13.7392C13.7835 14.1369 14.0544 14.6436 14.1641 15.1952C14.2738 15.7468 14.2175 16.3186 14.0023 16.8383C13.787 17.3579 13.4226 17.802 12.9549 18.1145C12.4873 18.427 11.9374 18.5938 11.375 18.5938C10.6208 18.5938 9.89747 18.2941 9.36417 17.7608C8.83086 17.2275 8.53125 16.5042 8.53125 15.75ZM23.8438 21.875C23.8438 21.933 23.8207 21.9887 23.7797 22.0297C23.7387 22.0707 23.683 22.0938 23.625 22.0938H17.3108C16.5456 20.7203 15.3292 19.6534 13.8677 19.0739C14.5658 18.5507 15.0816 17.821 15.3419 16.9883C15.6022 16.1556 15.5939 15.2621 15.3182 14.4344C15.0424 13.6067 14.5132 12.8867 13.8055 12.3766C13.0978 11.8664 12.2474 11.5918 11.375 11.5918C10.5026 11.5918 9.65224 11.8664 8.94452 12.3766C8.2368 12.8867 7.70757 13.6067 7.43182 14.4344C7.15606 15.2621 7.14777 16.1556 7.40811 16.9883C7.66845 17.821 8.18422 18.5507 8.88234 19.0739C7.42079 19.6534 6.20443 20.7203 5.43922 22.0938H4.375C4.31698 22.0938 4.26134 22.0707 4.22032 22.0297C4.1793 21.9887 4.15625 21.933 4.15625 21.875V6.125C4.15625 6.06698 4.1793 6.01134 4.22032 5.97032C4.26134 5.9293 4.31698 5.90625 4.375 5.90625H23.625C23.683 5.90625 23.7387 5.9293 23.7797 5.97032C23.8207 6.01134 23.8438 6.06698 23.8438 6.125V21.875ZM21.6562 8.75V19.25C21.6562 19.424 21.5871 19.591 21.464 19.714C21.341 19.8371 21.174 19.9062 21 19.9062H19.25C19.076 19.9062 18.909 19.8371 18.786 19.714C18.6629 19.591 18.5938 19.424 18.5938 19.25C18.5938 19.076 18.6629 18.909 18.786 18.786C18.909 18.6629 19.076 18.5938 19.25 18.5938H20.3438V9.40625H7.65625V10.5C7.65625 10.674 7.58711 10.841 7.46404 10.964C7.34097 11.0871 7.17405 11.1562 7 11.1562C6.82595 11.1562 6.65903 11.0871 6.53596 10.964C6.41289 10.841 6.34375 10.674 6.34375 10.5V8.75C6.34375 8.57595 6.41289 8.40903 6.53596 8.28596C6.65903 8.16289 6.82595 8.09375 7 8.09375H21C21.174 8.09375 21.341 8.16289 21.464 8.28596C21.5871 8.40903 21.6562 8.57595 21.6562 8.75Z"/>
</svg>
