<svg width="1452" height="132" viewBox="0 0 1452 132" fill="none" xmlns="http://www.w3.org/2000/svg">
<path d="M43.5525 116.325C37.1374 106.837 30.7224 94.3938 24.3074 78.9938L1.29695 20.4187C0.599666 18.9062 0.181294 17.2563 0.0418371 15.4688C-0.237077 11.6187 0.87858 8.31875 3.38881 5.56875C6.03849 2.81875 9.38547 1.44375 13.4297 1.44375C17.7529 1.44375 20.9604 2.40625 23.0523 4.33125C25.2836 6.11875 27.0965 8.45625 28.4911 11.3438L48.3637 64.9688C50.5951 70.6062 52.7566 75.9688 54.8485 81.0563C57.0798 86.0062 59.5203 90.5437 62.17 94.6687C64.8197 98.7937 67.818 100.994 71.165 101.269C74.3725 100.994 77.2314 98.7937 79.7416 94.6687C82.5307 90.5437 84.9712 86.0062 87.0631 81.0563C89.2944 75.9688 91.5257 70.6062 93.757 64.9688L113.211 11.3438C114.606 8.45625 116.349 6.11875 118.441 4.33125C120.672 2.40625 124.089 1.44375 128.691 1.44375C132.735 1.44375 136.013 2.81875 138.523 5.56875C141.172 8.31875 142.358 11.6187 142.079 15.4688C141.939 17.2563 141.521 18.9062 140.824 20.4187L117.813 78.9938C111.398 94.6688 104.983 107.181 98.5683 116.531C92.2927 125.744 83.1583 130.419 71.165 130.556C59.0322 130.419 49.828 125.675 43.5525 116.325Z" fill="url(#paint0_linear_970_1174)"/>
<path d="M172.202 78.1687C169.134 78.1687 166.484 77.1375 164.253 75.075C162.021 72.875 160.906 70.2625 160.906 67.2375C160.906 64.075 162.021 61.4625 164.253 59.4C166.484 57.2 169.134 56.1 172.202 56.1H208.182C211.25 56.1 213.899 57.2 216.131 59.4C218.362 61.4625 219.478 64.075 219.478 67.2375C219.478 70.2625 218.362 72.875 216.131 75.075C213.899 77.1375 211.25 78.1687 208.182 78.1687H172.202Z" fill="url(#paint1_linear_970_1174)"/>
<path d="M355.03 5.56875C362.142 5.70625 368.488 7.90625 374.066 12.1687C379.644 16.4312 384.107 21.5187 387.454 27.4312C390.94 33.3438 393.52 39.6 395.194 46.2C396.867 52.8 397.704 59.5375 397.704 66.4125C397.704 75.4875 396.24 84.425 393.311 93.225C390.522 101.887 385.85 109.587 379.296 116.325C372.88 123.062 364.792 126.706 355.03 127.256H282.024C272.262 126.844 264.104 123.269 257.549 116.531C250.995 109.794 246.323 102.025 243.534 93.225C240.884 84.425 239.559 75.4875 239.559 66.4125C239.559 57.3375 240.954 48.4687 243.743 39.8062C246.532 31.0062 251.134 23.2375 257.549 16.5C264.104 9.625 272.262 5.98125 282.024 5.56875H355.03ZM347.918 99.6188C353.217 99.3438 357.61 97.4187 361.096 93.8438C364.722 90.1312 367.302 85.8688 368.836 81.0563C370.37 76.2438 371.137 71.3625 371.137 66.4125C371.137 61.4625 370.301 56.65 368.627 51.975C367.093 47.1625 364.583 42.9 361.096 39.1875C357.61 35.475 353.217 33.4813 347.918 33.2062H288.509C283.21 33.4813 278.817 35.475 275.33 39.1875C271.844 42.9 269.264 47.1625 267.59 51.975C266.056 56.65 265.289 61.4625 265.289 66.4125C265.289 71.3625 266.056 76.2438 267.59 81.0563C269.124 85.8688 271.635 90.1312 275.121 93.8438C278.747 97.4187 283.21 99.3438 288.509 99.6188H347.918Z" fill="url(#paint2_linear_970_1174)"/>
<path d="M434.521 2.26875C438.425 2.26875 441.772 3.575 444.561 6.1875C447.351 8.6625 448.815 11.825 448.954 15.675V65.3812C448.815 71.0187 449.164 76.2438 450 81.0563C450.977 85.7313 453.208 89.925 456.694 93.6375C460.181 97.35 464.574 99.3438 469.873 99.6188H536.812C540.717 99.7562 543.925 101.2 546.435 103.95C549.085 106.7 550.409 110 550.409 113.85C550.27 117.562 548.875 120.725 546.226 123.338C543.716 125.812 540.578 127.119 536.812 127.256H462.761C452.999 126.706 444.91 123.475 438.495 117.562C432.22 111.512 427.687 104.156 424.898 95.4938C422.248 86.8313 420.854 77.6187 420.714 67.8562V15.675C420.854 11.9625 422.248 8.86875 424.898 6.39375C427.548 3.78125 430.755 2.40625 434.521 2.26875Z" fill="url(#paint3_linear_970_1174)"/>
<path d="M584.298 2.26875C588.202 2.26875 591.549 3.575 594.338 6.1875C597.128 8.6625 598.592 11.825 598.731 15.675V19.5938C598.592 25.2313 598.941 30.4562 599.777 35.2687C600.753 39.9437 602.985 44.1375 606.471 47.85C609.958 51.5625 614.351 53.5562 619.65 53.8312H678.431V16.0875C678.431 12.2375 679.826 9.075 682.615 6.6C685.543 3.9875 688.96 2.68125 692.865 2.68125C701.232 3.36875 705.834 7.8375 706.671 16.0875V63.9375C706.671 74.9375 705.137 85.3187 702.069 95.0812C699.28 103.744 694.678 111.1 688.263 117.15C681.987 123.062 673.969 126.294 664.206 126.844H588.9C585.134 126.706 581.927 125.4 579.277 122.925C576.767 120.312 575.442 117.15 575.303 113.438C575.303 109.588 576.558 106.287 579.068 103.537C581.718 100.787 584.995 99.3437 588.9 99.2062H657.094C662.394 98.9312 666.786 96.9375 670.273 93.225C673.48 89.7875 675.642 85.8688 676.758 81.4688H612.538C602.776 80.9187 594.687 77.6875 588.272 71.775C581.997 65.725 577.464 58.3687 574.675 49.7062C572.025 41.0438 570.631 31.8312 570.491 22.0688V15.675C570.631 11.9625 572.025 8.86875 574.675 6.39375C577.325 3.78125 580.532 2.40625 584.298 2.26875Z" fill="url(#paint4_linear_970_1174)"/>
<path d="M778.422 0C783.303 0 788.044 0.825 792.647 2.475C797.388 4.125 801.92 6.53125 806.244 9.69375C806.941 10.3812 807.708 11.0687 808.545 11.7562C809.242 11.0687 810.009 10.3812 810.846 9.69375C815.169 6.53125 819.631 4.125 824.234 2.475C828.975 0.825 833.717 0 838.458 0C843.339 0 848.081 0.825 852.683 2.475C857.424 4.125 861.887 6.6 866.071 9.9C870.394 13.0625 874.159 17.325 877.367 22.6875C880.714 28.05 882.387 34.4437 882.387 41.8687V116.325C881.551 124.575 876.948 129.044 868.581 129.731C864.676 129.731 861.259 128.494 858.331 126.019C855.542 123.406 854.147 120.175 854.147 116.325V43.5187C854.147 40.2188 853.52 37.4688 852.264 35.2687C851.009 32.9312 849.615 31.1437 848.081 29.9062C846.547 28.5312 844.943 27.5687 843.269 27.0187C841.596 26.3312 839.922 25.9875 838.249 25.9875C836.576 25.9875 834.902 26.3312 833.229 27.0187C831.695 27.5687 830.161 28.5312 828.626 29.9062C827.092 31.1437 825.698 32.9312 824.443 35.2687C823.188 37.4688 822.49 40.2188 822.351 43.5187V116.325C821.514 124.575 816.912 129.044 808.545 129.731C804.64 129.731 801.223 128.494 798.295 126.019C795.505 123.406 794.111 120.175 794.111 116.325V43.5187C794.111 40.2188 793.483 37.4688 792.228 35.2687C790.973 32.9312 789.578 31.1437 788.044 29.9062C786.51 28.5312 784.907 27.5687 783.233 27.0187C781.56 26.3312 779.886 25.9875 778.213 25.9875C776.539 25.9875 774.866 26.3312 773.192 27.0187C771.658 27.5687 770.124 28.5312 768.59 29.9062C767.056 31.1437 765.662 32.9312 764.406 35.2687C763.151 37.4688 762.454 40.2188 762.315 43.5187V116.325C761.617 124.575 757.085 129.044 748.718 129.731C744.813 129.731 741.396 128.494 738.467 126.019C735.678 123.406 734.284 120.175 734.284 116.325V41.8687C734.563 34.4437 736.306 28.05 739.513 22.6875C742.721 17.325 746.486 13.0625 750.809 9.9C755.133 6.6 759.595 4.125 764.197 2.475C768.939 0.825 773.68 0 778.422 0Z" fill="url(#paint5_linear_970_1174)"/>
<path d="M936.985 116.325C936.148 124.575 931.546 129.044 923.178 129.731C919.274 129.731 915.857 128.494 912.928 126.019C910.139 123.406 908.745 120.175 908.745 116.325V18.975C908.884 15.125 910.348 11.9625 913.138 9.4875C915.927 6.875 919.274 5.56875 923.178 5.56875H1011.04C1023.31 5.98125 1032.58 8.6625 1038.86 13.6125C1045.13 18.425 1049.67 23.925 1052.46 30.1125C1055.24 36.3 1056.64 42.5562 1056.64 48.8812C1056.64 55.4812 1055.24 61.875 1052.46 68.0625C1049.81 74.25 1045.27 79.8187 1038.86 84.7687C1032.58 89.5812 1024.56 91.9187 1014.8 91.7812H962.087C958.182 91.7812 954.905 90.4062 952.255 87.6562C949.466 85.0437 948.072 81.8125 948.072 77.9625C948.072 74.1125 949.396 70.8812 952.046 68.2687C954.835 65.5187 958.182 64.1437 962.087 64.1437H1016.06C1018.71 64.1437 1020.87 63.3188 1022.54 61.6688C1024.35 59.8813 1025.68 57.8875 1026.52 55.6875C1027.35 53.35 1027.77 51.0125 1027.77 48.675C1027.77 46.475 1027.35 44.275 1026.52 42.075C1025.68 39.7375 1024.35 37.7438 1022.54 36.0938C1020.87 34.3063 1018.71 33.3438 1016.06 33.2062H942.424C938.798 33.3438 936.985 35.1312 936.985 38.5687V116.325Z" fill="url(#paint6_linear_970_1174)"/>
<path d="M1100.36 130.556C1094.78 130.556 1090.11 128.631 1086.34 124.781C1082.72 120.931 1080.9 116.119 1080.9 110.344C1080.9 104.569 1082.72 99.7562 1086.34 95.9062C1090.11 92.0563 1094.78 90.1312 1100.36 90.1312C1105.94 90.1312 1110.61 92.0563 1114.37 95.9062C1118.14 99.7562 1120.02 104.569 1120.02 110.344C1120.02 116.119 1118.14 120.931 1114.37 124.781C1110.61 128.631 1105.94 130.556 1100.36 130.556Z" fill="url(#paint7_linear_970_1174)"/>
<path d="M1176.5 116.737C1175.67 124.987 1171.06 129.456 1162.7 130.144C1158.79 130.144 1155.37 128.906 1152.45 126.431C1149.66 123.819 1148.26 120.587 1148.26 116.737V18.975C1148.4 15.125 1149.87 11.9625 1152.66 9.4875C1155.44 6.875 1158.79 5.56875 1162.7 5.56875H1250.34C1251.18 5.56875 1252.02 5.6375 1252.86 5.775H1254.11C1263.87 6.05 1271.89 8.25 1278.17 12.375C1284.44 16.5 1288.97 21.2437 1291.76 26.6062C1294.55 31.8312 1295.95 37.125 1295.95 42.4875C1295.95 47.9875 1294.55 53.4188 1291.76 58.7812C1289.11 64.0062 1284.58 68.6813 1278.17 72.8063C1271.89 76.9313 1263.87 79.1312 1254.11 79.4062H1217.29C1218.41 86.2812 1220.71 91.3687 1224.2 94.6687C1227.54 97.9688 1231.8 99.6188 1236.96 99.6188H1282.14C1286.05 99.7562 1289.25 101.2 1291.76 103.95C1294.41 106.7 1295.74 110 1295.74 113.85C1295.6 117.562 1294.2 120.725 1291.55 123.338C1289.04 125.812 1285.91 127.119 1282.14 127.256H1233.19C1222.87 127.394 1213.53 123.406 1205.16 115.294C1196.79 107.181 1191.7 97.5562 1189.89 86.4187C1187.38 74.0437 1186.12 67.1 1186.12 65.5875C1186.12 61.7375 1187.45 58.5062 1190.1 55.8937C1192.89 53.1437 1196.24 51.7687 1200.14 51.7687H1255.37C1258.02 51.6312 1260.18 51.0812 1261.85 50.1187C1263.66 49.0187 1264.99 47.85 1265.82 46.6125C1266.66 45.2375 1267.08 43.8625 1267.08 42.4875C1267.08 41.1125 1266.66 39.8062 1265.82 38.5687C1264.99 37.1937 1263.66 36.025 1261.85 35.0625C1260.18 33.9625 1258.02 33.3438 1255.37 33.2062H1181.94C1178.32 33.3438 1176.5 35.1312 1176.5 38.5687V116.737Z" fill="url(#paint8_linear_970_1174)"/>
<path d="M1385.27 132C1378.02 132 1370.84 131.175 1363.72 129.525C1356.75 127.875 1350.06 125.469 1343.64 122.306C1337.23 119.006 1331.58 114.675 1326.7 109.312C1321.82 103.95 1319.17 97.5563 1318.75 90.1312V15.675C1318.75 11.825 1320.14 8.6625 1322.93 6.1875C1325.86 3.575 1329.28 2.26875 1333.18 2.26875C1341.55 2.95625 1346.08 7.425 1346.78 15.675V83.7375C1347.06 88 1348.66 91.575 1351.59 94.4625C1354.66 97.2125 1358.01 99.4125 1361.63 101.062C1365.4 102.713 1369.23 103.95 1373.14 104.775C1377.18 105.6 1381.23 106.012 1385.27 106.012C1389.31 106.012 1393.29 105.6 1397.19 104.775C1401.24 103.95 1405.07 102.713 1408.7 101.062C1412.46 99.4125 1415.81 97.2125 1418.74 94.4625C1421.81 91.575 1423.48 88 1423.76 83.7375V15.675C1423.76 11.825 1425.15 8.6625 1427.94 6.1875C1430.87 3.575 1434.29 2.26875 1438.19 2.26875C1446.56 2.95625 1451.16 7.425 1452 15.675V90.1312C1451.58 97.5563 1448.86 103.95 1443.84 109.312C1438.96 114.675 1433.31 119.006 1426.9 122.306C1420.48 125.469 1413.72 127.875 1406.61 129.525C1399.63 131.175 1392.52 132 1385.27 132Z" fill="url(#paint9_linear_970_1174)"/>
<defs>
<linearGradient id="paint0_linear_970_1174" x1="726" y1="0" x2="726" y2="132" gradientUnits="userSpaceOnUse">
<stop stop-color="white"/>
<stop offset="1" stop-color="#C4CDED" stop-opacity="0.54"/>
</linearGradient>
<linearGradient id="paint1_linear_970_1174" x1="726" y1="0" x2="726" y2="132" gradientUnits="userSpaceOnUse">
<stop stop-color="white"/>
<stop offset="1" stop-color="#C4CDED" stop-opacity="0.54"/>
</linearGradient>
<linearGradient id="paint2_linear_970_1174" x1="726" y1="0" x2="726" y2="132" gradientUnits="userSpaceOnUse">
<stop stop-color="white"/>
<stop offset="1" stop-color="#C4CDED" stop-opacity="0.54"/>
</linearGradient>
<linearGradient id="paint3_linear_970_1174" x1="726" y1="0" x2="726" y2="132" gradientUnits="userSpaceOnUse">
<stop stop-color="white"/>
<stop offset="1" stop-color="#C4CDED" stop-opacity="0.54"/>
</linearGradient>
<linearGradient id="paint4_linear_970_1174" x1="726" y1="0" x2="726" y2="132" gradientUnits="userSpaceOnUse">
<stop stop-color="white"/>
<stop offset="1" stop-color="#C4CDED" stop-opacity="0.54"/>
</linearGradient>
<linearGradient id="paint5_linear_970_1174" x1="726" y1="0" x2="726" y2="132" gradientUnits="userSpaceOnUse">
<stop stop-color="white"/>
<stop offset="1" stop-color="#C4CDED" stop-opacity="0.54"/>
</linearGradient>
<linearGradient id="paint6_linear_970_1174" x1="726" y1="0" x2="726" y2="132" gradientUnits="userSpaceOnUse">
<stop stop-color="white"/>
<stop offset="1" stop-color="#C4CDED" stop-opacity="0.54"/>
</linearGradient>
<linearGradient id="paint7_linear_970_1174" x1="726" y1="0" x2="726" y2="132" gradientUnits="userSpaceOnUse">
<stop stop-color="white"/>
<stop offset="1" stop-color="#C4CDED" stop-opacity="0.54"/>
</linearGradient>
<linearGradient id="paint8_linear_970_1174" x1="726" y1="0" x2="726" y2="132" gradientUnits="userSpaceOnUse">
<stop stop-color="white"/>
<stop offset="1" stop-color="#C4CDED" stop-opacity="0.54"/>
</linearGradient>
<linearGradient id="paint9_linear_970_1174" x1="726" y1="0" x2="726" y2="132" gradientUnits="userSpaceOnUse">
<stop stop-color="white"/>
<stop offset="1" stop-color="#C4CDED" stop-opacity="0.54"/>
</linearGradient>
</defs>
</svg>
