<svg width="1066" height="96" viewBox="0 0 1066 96" fill="none" xmlns="http://www.w3.org/2000/svg">
<path d="M31.9745 84.6C27.2648 77.7 22.5552 68.65 17.8455 57.45L0.95217 14.85C0.44025 13.75 0.133099 12.55 0.0307151 11.25C-0.174053 8.45 0.645018 6.05 2.48793 4.05C4.43322 2.05 6.89043 1.05 9.85956 1.05C13.0335 1.05 15.3883 1.75 16.924 3.15C18.5622 4.45 19.8932 6.15 20.917 8.25L35.5067 47.25C37.1449 51.35 38.7318 55.25 40.2676 58.95C41.9057 62.55 43.6974 65.85 45.6427 68.85C47.588 71.85 49.7893 73.45 52.2465 73.65C54.6013 73.45 56.7002 71.85 58.5431 68.85C60.5908 65.85 62.3825 62.55 63.9182 58.95C65.5564 55.25 67.1945 51.35 68.8326 47.25L83.1152 8.25C84.139 6.15 85.4188 4.45 86.9546 3.15C88.5927 1.75 91.1011 1.05 94.4798 1.05C97.4489 1.05 99.8549 2.05 101.698 4.05C103.643 6.05 104.513 8.45 104.309 11.25C104.206 12.55 103.899 13.75 103.387 14.85L86.4939 57.45C81.7842 68.85 77.0745 77.95 72.3649 84.75C67.7576 91.45 61.0515 94.85 52.2465 94.95C43.3391 94.85 36.5817 91.4 31.9745 84.6Z" fill="white"/>
<path d="M126.424 56.85C124.171 56.85 122.226 56.1 120.588 54.6C118.95 53 118.13 51.1 118.13 48.9C118.13 46.6 118.95 44.7 120.588 43.2C122.226 41.6 124.171 40.8 126.424 40.8H152.839C155.091 40.8 157.036 41.6 158.674 43.2C160.313 44.7 161.132 46.6 161.132 48.9C161.132 51.1 160.313 53 158.674 54.6C157.036 56.1 155.091 56.85 152.839 56.85H126.424Z" fill="white"/>
<path d="M260.649 4.05C265.87 4.15 270.529 5.75 274.624 8.85C278.719 11.95 281.996 15.65 284.453 19.95C287.013 24.25 288.907 28.8 290.135 33.6C291.364 38.4 291.978 43.3 291.978 48.3C291.978 54.9 290.903 61.4 288.753 67.8C286.705 74.1 283.276 79.7 278.464 84.6C273.754 89.5 267.816 92.15 260.649 92.55H207.051C199.884 92.25 193.894 89.65 189.082 84.75C184.27 79.85 180.841 74.2 178.793 67.8C176.848 61.4 175.875 54.9 175.875 48.3C175.875 41.7 176.899 35.25 178.946 28.95C180.994 22.55 184.373 16.9 189.082 12C193.894 7 199.884 4.35 207.051 4.05H260.649ZM255.427 72.45C259.318 72.25 262.543 70.85 265.102 68.25C267.764 65.55 269.659 62.45 270.785 58.95C271.911 55.45 272.474 51.9 272.474 48.3C272.474 44.7 271.86 41.2 270.631 37.8C269.505 34.3 267.662 31.2 265.102 28.5C262.543 25.8 259.318 24.35 255.427 24.15H211.812C207.921 24.35 204.696 25.8 202.136 28.5C199.577 31.2 197.683 34.3 196.454 37.8C195.328 41.2 194.765 44.7 194.765 48.3C194.765 51.9 195.328 55.45 196.454 58.95C197.58 62.45 199.423 65.55 201.983 68.25C204.645 70.85 207.921 72.25 211.812 72.45H255.427Z" fill="white"/>
<path d="M319.008 1.65C321.874 1.65 324.331 2.6 326.379 4.5C328.427 6.3 329.502 8.6 329.604 11.4V47.55C329.502 51.65 329.758 55.45 330.372 58.95C331.089 62.35 332.727 65.4 335.287 68.1C337.846 70.8 341.071 72.25 344.962 72.45H394.106C396.973 72.55 399.328 73.6 401.171 75.6C403.116 77.6 404.089 80 404.089 82.8C403.986 85.5 402.962 87.8 401.017 89.7C399.174 91.5 396.87 92.45 394.106 92.55H339.74C332.573 92.15 326.635 89.8 321.925 85.5C317.318 81.1 313.991 75.75 311.943 69.45C309.998 63.15 308.974 56.45 308.872 49.35V11.4C308.974 8.7 309.998 6.45 311.943 4.65C313.888 2.75 316.243 1.75 319.008 1.65Z" fill="white"/>
<path d="M428.968 1.65C431.834 1.65 434.292 2.6 436.339 4.5C438.387 6.3 439.462 8.6 439.564 11.4V14.25C439.462 18.35 439.718 22.15 440.332 25.65C441.049 29.05 442.687 32.1 445.247 34.8C447.806 37.5 451.031 38.95 454.922 39.15H498.077V11.7C498.077 8.9 499.101 6.6 501.148 4.8C503.298 2.9 505.807 1.95 508.674 1.95C514.817 2.45 518.195 5.7 518.81 11.7V46.5C518.81 54.5 517.683 62.05 515.431 69.15C513.383 75.45 510.005 80.8 505.295 85.2C500.688 89.5 494.801 91.85 487.634 92.25H432.346C429.582 92.15 427.227 91.2 425.282 89.4C423.439 87.5 422.466 85.2 422.364 82.5C422.364 79.7 423.285 77.3 425.128 75.3C427.074 73.3 429.48 72.25 432.346 72.15H482.412C486.303 71.95 489.528 70.5 492.087 67.8C494.442 65.3 496.029 62.45 496.848 59.25H449.7C442.534 58.85 436.595 56.5 431.886 52.2C427.278 47.8 423.951 42.45 421.903 36.15C419.958 29.85 418.934 23.15 418.832 16.05V11.4C418.934 8.7 419.958 6.45 421.903 4.65C423.849 2.75 426.203 1.75 428.968 1.65Z" fill="white"/>
<path d="M571.486 0C575.069 0 578.551 0.6 581.929 1.8C585.41 3 588.738 4.75 591.912 7.05C592.424 7.55 592.987 8.05 593.601 8.55C594.113 8.05 594.676 7.55 595.29 7.05C598.464 4.75 601.74 3 605.119 1.8C608.6 0.6 612.081 0 615.562 0C619.146 0 622.627 0.6 626.005 1.8C629.486 3 632.763 4.8 635.834 7.2C639.008 9.5 641.773 12.6 644.127 16.5C646.585 20.4 647.813 25.05 647.813 30.45V84.6C647.199 90.6 643.82 93.85 637.677 94.35C634.81 94.35 632.302 93.45 630.152 91.65C628.104 89.75 627.08 87.4 627.08 84.6V31.65C627.08 29.25 626.62 27.25 625.698 25.65C624.777 23.95 623.753 22.65 622.627 21.75C621.501 20.75 620.323 20.05 619.095 19.65C617.866 19.15 616.637 18.9 615.409 18.9C614.18 18.9 612.952 19.15 611.723 19.65C610.597 20.05 609.47 20.75 608.344 21.75C607.218 22.65 606.194 23.95 605.273 25.65C604.351 27.25 603.839 29.25 603.737 31.65V84.6C603.123 90.6 599.744 93.85 593.601 94.35C590.734 94.35 588.226 93.45 586.076 91.65C584.028 89.75 583.004 87.4 583.004 84.6V31.65C583.004 29.25 582.543 27.25 581.622 25.65C580.701 23.95 579.677 22.65 578.551 21.75C577.424 20.75 576.247 20.05 575.018 19.65C573.79 19.15 572.561 18.9 571.332 18.9C570.104 18.9 568.875 19.15 567.647 19.65C566.52 20.05 565.394 20.75 564.268 21.75C563.142 22.65 562.118 23.95 561.196 25.65C560.275 27.25 559.763 29.25 559.661 31.65V84.6C559.149 90.6 555.821 93.85 549.678 94.35C546.812 94.35 544.303 93.45 542.153 91.65C540.105 89.75 539.082 87.4 539.082 84.6V30.45C539.286 25.05 540.566 20.4 542.921 16.5C545.276 12.6 548.04 9.5 551.214 7.2C554.388 4.8 557.664 3 561.043 1.8C564.524 0.6 568.005 0 571.486 0Z" fill="white"/>
<path d="M687.896 84.6C687.282 90.6 683.904 93.85 677.76 94.35C674.894 94.35 672.385 93.45 670.235 91.65C668.188 89.75 667.164 87.4 667.164 84.6V13.8C667.266 11 668.341 8.7 670.389 6.9C672.437 5 674.894 4.05 677.76 4.05H742.262C751.272 4.35 758.081 6.3 762.688 9.9C767.295 13.4 770.623 17.4 772.67 21.9C774.718 26.4 775.742 30.95 775.742 35.55C775.742 40.35 774.718 45 772.67 49.5C770.725 54 767.398 58.05 762.688 61.65C758.081 65.15 752.194 66.85 745.027 66.75H706.326C703.459 66.75 701.053 65.75 699.107 63.75C697.06 61.85 696.036 59.5 696.036 56.7C696.036 53.9 697.009 51.55 698.954 49.65C701.002 47.65 703.459 46.65 706.326 46.65H745.948C747.893 46.65 749.48 46.05 750.709 44.85C752.04 43.55 753.013 42.1 753.627 40.5C754.241 38.8 754.548 37.1 754.548 35.4C754.548 33.8 754.241 32.2 753.627 30.6C753.013 28.9 752.04 27.45 750.709 26.25C749.48 24.95 747.893 24.25 745.948 24.15H691.889C689.227 24.25 687.896 25.55 687.896 28.05V84.6Z" fill="white"/>
<path d="M807.839 94.95C803.744 94.95 800.314 93.55 797.549 90.75C794.888 87.95 793.557 84.45 793.557 80.25C793.557 76.05 794.888 72.55 797.549 69.75C800.314 66.95 803.744 65.55 807.839 65.55C811.934 65.55 815.364 66.95 818.129 69.75C820.893 72.55 822.275 76.05 822.275 80.25C822.275 84.45 820.893 87.95 818.129 90.75C815.364 93.55 811.934 94.95 807.839 94.95Z" fill="white"/>
<path d="M863.741 84.9C863.126 90.9 859.748 94.15 853.605 94.65C850.738 94.65 848.23 93.75 846.08 91.95C844.032 90.05 843.008 87.7 843.008 84.9V13.8C843.11 11 844.185 8.7 846.233 6.9C848.281 5 850.738 4.05 853.605 4.05H917.953C918.567 4.05 919.182 4.1 919.796 4.2H920.717C927.884 4.4 933.771 6 938.379 9C942.986 12 946.313 15.45 948.361 19.35C950.409 23.15 951.432 27 951.432 30.9C951.432 34.9 950.409 38.85 948.361 42.75C946.416 46.55 943.088 49.95 938.379 52.95C933.771 55.95 927.884 57.55 920.717 57.75H893.688C894.507 62.75 896.196 66.45 898.756 68.85C901.213 71.25 904.336 72.45 908.124 72.45H941.296C944.163 72.55 946.518 73.6 948.361 75.6C950.306 77.6 951.279 80 951.279 82.8C951.177 85.5 950.153 87.8 948.207 89.7C946.364 91.5 944.061 92.45 941.296 92.55H905.36C897.783 92.65 890.924 89.75 884.781 83.85C878.638 77.95 874.901 70.95 873.57 62.85C871.727 53.85 870.805 48.8 870.805 47.7C870.805 44.9 871.778 42.55 873.723 40.65C875.771 38.65 878.228 37.65 881.095 37.65H921.639C923.584 37.55 925.171 37.15 926.4 36.45C927.731 35.65 928.703 34.8 929.318 33.9C929.932 32.9 930.239 31.9 930.239 30.9C930.239 29.9 929.932 28.95 929.318 28.05C928.703 27.05 927.731 26.2 926.4 25.5C925.171 24.7 923.584 24.25 921.639 24.15H867.734C865.072 24.25 863.741 25.55 863.741 28.05V84.9Z" fill="white"/>
<path d="M1017.01 96C1011.69 96 1006.41 95.4 1001.19 94.2C996.072 93 991.157 91.25 986.448 88.95C981.738 86.55 977.592 83.4 974.008 79.5C970.425 75.6 968.479 70.95 968.172 65.55V11.4C968.172 8.6 969.196 6.3 971.244 4.5C973.394 2.6 975.902 1.65 978.769 1.65C984.912 2.15 988.239 5.4 988.751 11.4V60.9C988.956 64 990.134 66.6 992.284 68.7C994.536 70.7 996.993 72.3 999.655 73.5C1002.42 74.7 1005.24 75.6 1008.1 76.2C1011.07 76.8 1014.04 77.1 1017.01 77.1C1019.98 77.1 1022.9 76.8 1025.76 76.2C1028.73 75.6 1031.55 74.7 1034.21 73.5C1036.97 72.3 1039.43 70.7 1041.58 68.7C1043.83 66.6 1045.06 64 1045.27 60.9V11.4C1045.27 8.6 1046.29 6.3 1048.34 4.5C1050.49 2.6 1053 1.65 1055.86 1.65C1062.01 2.15 1065.39 5.4 1066 11.4V65.55C1065.69 70.95 1063.7 75.6 1060.01 79.5C1056.43 83.4 1052.28 86.55 1047.57 88.95C1042.86 91.25 1037.9 93 1032.67 94.2C1027.55 95.4 1022.33 96 1017.01 96Z" fill="white"/>
</svg>
