<svg viewBox="0 0 435 41" fill="none" xmlns="http://www.w3.org/2000/svg">
    <path d="M13.8748 35.5625C11.9581 32.6875 10.0415 28.9167 8.1248 24.25L1.2498 6.5C1.04147 6.04167 0.916471 5.54167 0.874805 5C0.791471 3.83333 1.1248 2.83333 1.8748 2C2.66647 1.16667 3.66647 0.75 4.8748 0.75C6.16647 0.75 7.1248 1.04167 7.7498 1.625C8.41647 2.16667 8.95814 2.875 9.3748 3.75L15.3123 20C15.979 21.7083 16.6248 23.3333 17.2498 24.875C17.9165 26.375 18.6456 27.75 19.4373 29C20.229 30.25 21.1248 30.9167 22.1248 31C23.0831 30.9167 23.9373 30.25 24.6873 29C25.5206 27.75 26.2498 26.375 26.8748 24.875C27.5415 23.3333 28.2081 21.7083 28.8748 20L34.6873 3.75C35.104 2.875 35.6248 2.16667 36.2498 1.625C36.9165 1.04167 37.9373 0.75 39.3123 0.75C40.5206 0.75 41.4998 1.16667 42.2498 2C43.0415 2.83333 43.3956 3.83333 43.3123 5C43.2706 5.54167 43.1456 6.04167 42.9373 6.5L36.0623 24.25C34.1456 29 32.229 32.7917 30.3123 35.625C28.4373 38.4167 25.7081 39.8333 22.1248 39.875C18.4998 39.8333 15.7498 38.3958 13.8748 35.5625Z"/>
    <path d="M52.3123 24C51.3956 24 50.604 23.6875 49.9373 23.0625C49.2706 22.3958 48.9373 21.6042 48.9373 20.6875C48.9373 19.7292 49.2706 18.9375 49.9373 18.3125C50.604 17.6458 51.3956 17.3125 52.3123 17.3125H63.0623C63.979 17.3125 64.7706 17.6458 65.4373 18.3125C66.104 18.9375 66.4373 19.7292 66.4373 20.6875C66.4373 21.6042 66.104 22.3958 65.4373 23.0625C64.7706 23.6875 63.979 24 63.0623 24H52.3123Z"/>
    <path d="M106.937 2C109.062 2.04167 110.958 2.70833 112.625 4C114.291 5.29167 115.625 6.83333 116.625 8.625C117.666 10.4167 118.437 12.3125 118.937 14.3125C119.437 16.3125 119.687 18.3542 119.687 20.4375C119.687 23.1875 119.25 25.8958 118.375 28.5625C117.541 31.1875 116.146 33.5208 114.187 35.5625C112.271 37.6042 109.854 38.7083 106.937 38.875H85.1248C82.2081 38.75 79.7706 37.6667 77.8123 35.625C75.854 33.5833 74.4581 31.2292 73.6248 28.5625C72.8331 25.8958 72.4373 23.1875 72.4373 20.4375C72.4373 17.6875 72.854 15 73.6873 12.375C74.5206 9.70833 75.8956 7.35417 77.8123 5.3125C79.7706 3.22917 82.2081 2.125 85.1248 2H106.937ZM104.812 30.5C106.396 30.4167 107.708 29.8333 108.75 28.75C109.833 27.625 110.604 26.3333 111.062 24.875C111.521 23.4167 111.75 21.9375 111.75 20.4375C111.75 18.9375 111.5 17.4792 111 16.0625C110.541 14.6042 109.791 13.3125 108.75 12.1875C107.708 11.0625 106.396 10.4583 104.812 10.375H87.0623C85.479 10.4583 84.1665 11.0625 83.1248 12.1875C82.0831 13.3125 81.3123 14.6042 80.8123 16.0625C80.354 17.4792 80.1248 18.9375 80.1248 20.4375C80.1248 21.9375 80.354 23.4167 80.8123 24.875C81.2706 26.3333 82.0206 27.625 83.0623 28.75C84.1456 29.8333 85.479 30.4167 87.0623 30.5H104.812Z"/>
    <path d="M130.687 1C131.854 1 132.854 1.39583 133.687 2.1875C134.521 2.9375 134.958 3.89583 135 5.0625V20.125C134.958 21.8333 135.062 23.4167 135.312 24.875C135.604 26.2917 136.271 27.5625 137.312 28.6875C138.354 29.8125 139.666 30.4167 141.25 30.5H161.25C162.416 30.5417 163.375 30.9792 164.125 31.8125C164.916 32.6458 165.312 33.6458 165.312 34.8125C165.271 35.9375 164.854 36.8958 164.062 37.6875C163.312 38.4375 162.375 38.8333 161.25 38.875H139.125C136.208 38.7083 133.791 37.7292 131.875 35.9375C130 34.1042 128.646 31.875 127.812 29.25C127.021 26.625 126.604 23.8333 126.562 20.875V5.0625C126.604 3.9375 127.021 3 127.812 2.25C128.604 1.45833 129.562 1.04167 130.687 1Z"/>
    <path d="M175.437 1C176.604 1 177.604 1.39583 178.437 2.1875C179.271 2.9375 179.708 3.89583 179.75 5.0625V6.25C179.708 7.95833 179.812 9.54167 180.062 11C180.354 12.4167 181.021 13.6875 182.062 14.8125C183.104 15.9375 184.416 16.5417 186 16.625H203.562V5.1875C203.562 4.02083 203.979 3.0625 204.812 2.3125C205.687 1.52083 206.708 1.125 207.875 1.125C210.375 1.33333 211.75 2.6875 212 5.1875V19.6875C212 23.0208 211.541 26.1667 210.625 29.125C209.791 31.75 208.416 33.9792 206.5 35.8125C204.625 37.6042 202.229 38.5833 199.312 38.75H176.812C175.687 38.7083 174.729 38.3125 173.937 37.5625C173.187 36.7708 172.791 35.8125 172.75 34.6875C172.75 33.5208 173.125 32.5208 173.875 31.6875C174.666 30.8542 175.646 30.4167 176.812 30.375H197.187C198.771 30.2917 200.083 29.6875 201.125 28.5625C202.083 27.5208 202.729 26.3333 203.062 25H183.875C180.958 24.8333 178.541 23.8542 176.625 22.0625C174.75 20.2292 173.396 18 172.562 15.375C171.771 12.75 171.354 9.95833 171.312 7V5.0625C171.354 3.9375 171.771 3 172.562 2.25C173.354 1.45833 174.312 1.04167 175.437 1Z"/>
    <path d="M233.437 0.3125C234.896 0.3125 236.312 0.5625 237.687 1.0625C239.104 1.5625 240.458 2.29167 241.75 3.25C241.958 3.45833 242.187 3.66667 242.437 3.875C242.646 3.66667 242.875 3.45833 243.125 3.25C244.416 2.29167 245.75 1.5625 247.125 1.0625C248.541 0.5625 249.958 0.3125 251.375 0.3125C252.833 0.3125 254.25 0.5625 255.625 1.0625C257.041 1.5625 258.375 2.3125 259.625 3.3125C260.916 4.27083 262.041 5.5625 263 7.1875C264 8.8125 264.5 10.75 264.5 13V35.5625C264.25 38.0625 262.875 39.4167 260.375 39.625C259.208 39.625 258.187 39.25 257.312 38.5C256.479 37.7083 256.062 36.7292 256.062 35.5625V13.5C256.062 12.5 255.875 11.6667 255.5 11C255.125 10.2917 254.708 9.75 254.25 9.375C253.791 8.95833 253.312 8.66667 252.812 8.5C252.312 8.29167 251.812 8.1875 251.312 8.1875C250.812 8.1875 250.312 8.29167 249.812 8.5C249.354 8.66667 248.896 8.95833 248.437 9.375C247.979 9.75 247.562 10.2917 247.187 11C246.812 11.6667 246.604 12.5 246.562 13.5V35.5625C246.312 38.0625 244.937 39.4167 242.437 39.625C241.271 39.625 240.25 39.25 239.375 38.5C238.541 37.7083 238.125 36.7292 238.125 35.5625V13.5C238.125 12.5 237.937 11.6667 237.562 11C237.187 10.2917 236.771 9.75 236.312 9.375C235.854 8.95833 235.375 8.66667 234.875 8.5C234.375 8.29167 233.875 8.1875 233.375 8.1875C232.875 8.1875 232.375 8.29167 231.875 8.5C231.416 8.66667 230.958 8.95833 230.5 9.375C230.041 9.75 229.625 10.2917 229.25 11C228.875 11.6667 228.666 12.5 228.625 13.5V35.5625C228.416 38.0625 227.062 39.4167 224.562 39.625C223.396 39.625 222.375 39.25 221.5 38.5C220.666 37.7083 220.25 36.7292 220.25 35.5625V13C220.333 10.75 220.854 8.8125 221.812 7.1875C222.771 5.5625 223.896 4.27083 225.187 3.3125C226.479 2.3125 227.812 1.5625 229.187 1.0625C230.604 0.5625 232.021 0.3125 233.437 0.3125Z"/>
    <path d="M280.812 35.5625C280.562 38.0625 279.187 39.4167 276.687 39.625C275.521 39.625 274.5 39.25 273.625 38.5C272.791 37.7083 272.375 36.7292 272.375 35.5625V6.0625C272.416 4.89583 272.854 3.9375 273.687 3.1875C274.521 2.39583 275.521 2 276.687 2H302.937C306.604 2.125 309.375 2.9375 311.25 4.4375C313.125 5.89583 314.479 7.5625 315.312 9.4375C316.146 11.3125 316.562 13.2083 316.562 15.125C316.562 17.125 316.146 19.0625 315.312 20.9375C314.521 22.8125 313.166 24.5 311.25 26C309.375 27.4583 306.979 28.1667 304.062 28.125H288.312C287.146 28.125 286.166 27.7083 285.375 26.875C284.541 26.0833 284.125 25.1042 284.125 23.9375C284.125 22.7708 284.521 21.7917 285.312 21C286.146 20.1667 287.146 19.75 288.312 19.75H304.437C305.229 19.75 305.875 19.5 306.375 19C306.916 18.4583 307.312 17.8542 307.562 17.1875C307.812 16.4792 307.937 15.7708 307.937 15.0625C307.937 14.3958 307.812 13.7292 307.562 13.0625C307.312 12.3542 306.916 11.75 306.375 11.25C305.875 10.7083 305.229 10.4167 304.437 10.375H282.437C281.354 10.4167 280.812 10.9583 280.812 12V35.5625Z"/>
    <path d="M329.625 39.875C327.958 39.875 326.562 39.2917 325.437 38.125C324.354 36.9583 323.812 35.5 323.812 33.75C323.812 32 324.354 30.5417 325.437 29.375C326.562 28.2083 327.958 27.625 329.625 27.625C331.291 27.625 332.687 28.2083 333.812 29.375C334.937 30.5417 335.5 32 335.5 33.75C335.5 35.5 334.937 36.9583 333.812 38.125C332.687 39.2917 331.291 39.875 329.625 39.875Z"/>
    <path d="M352.375 35.6875C352.125 38.1875 350.75 39.5417 348.25 39.75C347.083 39.75 346.062 39.375 345.187 38.625C344.354 37.8333 343.937 36.8542 343.937 35.6875V6.0625C343.979 4.89583 344.416 3.9375 345.25 3.1875C346.083 2.39583 347.083 2 348.25 2H374.437C374.687 2 374.937 2.02083 375.187 2.0625H375.562C378.479 2.14583 380.875 2.8125 382.75 4.0625C384.625 5.3125 385.979 6.75 386.812 8.375C387.646 9.95833 388.062 11.5625 388.062 13.1875C388.062 14.8542 387.646 16.5 386.812 18.125C386.021 19.7083 384.666 21.125 382.75 22.375C380.875 23.625 378.479 24.2917 375.562 24.375H364.562C364.896 26.4583 365.583 28 366.625 29C367.625 30 368.896 30.5 370.437 30.5H383.937C385.104 30.5417 386.062 30.9792 386.812 31.8125C387.604 32.6458 388 33.6458 388 34.8125C387.958 35.9375 387.541 36.8958 386.75 37.6875C386 38.4375 385.062 38.8333 383.937 38.875H369.312C366.229 38.9167 363.437 37.7083 360.937 35.25C358.437 32.7917 356.916 29.875 356.375 26.5C355.625 22.75 355.25 20.6458 355.25 20.1875C355.25 19.0208 355.646 18.0417 356.437 17.25C357.271 16.4167 358.271 16 359.437 16H375.937C376.729 15.9583 377.375 15.7917 377.875 15.5C378.416 15.1667 378.812 14.8125 379.062 14.4375C379.312 14.0208 379.437 13.6042 379.437 13.1875C379.437 12.7708 379.312 12.375 379.062 12C378.812 11.5833 378.416 11.2292 377.875 10.9375C377.375 10.6042 376.729 10.4167 375.937 10.375H354C352.916 10.4167 352.375 10.9583 352.375 12V35.6875Z"/>
    <path d="M414.75 40.3125C412.583 40.3125 410.437 40.0625 408.312 39.5625C406.229 39.0625 404.229 38.3333 402.312 37.375C400.396 36.375 398.708 35.0625 397.25 33.4375C395.791 31.8125 395 29.875 394.875 27.625V5.0625C394.875 3.89583 395.291 2.9375 396.125 2.1875C397 1.39583 398.021 1 399.187 1C401.687 1.20833 403.041 2.5625 403.25 5.0625V25.6875C403.333 26.9792 403.812 28.0625 404.687 28.9375C405.604 29.7708 406.604 30.4375 407.687 30.9375C408.812 31.4375 409.958 31.8125 411.125 32.0625C412.333 32.3125 413.541 32.4375 414.75 32.4375C415.958 32.4375 417.146 32.3125 418.312 32.0625C419.521 31.8125 420.666 31.4375 421.75 30.9375C422.875 30.4375 423.875 29.7708 424.75 28.9375C425.666 28.0625 426.166 26.9792 426.25 25.6875V5.0625C426.25 3.89583 426.666 2.9375 427.5 2.1875C428.375 1.39583 429.396 1 430.562 1C433.062 1.20833 434.437 2.5625 434.687 5.0625V27.625C434.562 29.875 433.75 31.8125 432.25 33.4375C430.791 35.0625 429.104 36.375 427.187 37.375C425.271 38.3333 423.25 39.0625 421.125 39.5625C419.041 40.0625 416.916 40.3125 414.75 40.3125Z"/>
</svg>
